<mxfile host="app.diagrams.net" modified="2021-01-08T09:41:00.551Z" agent="5.0 (Macintosh; Intel Mac OS X 10_15_7) AppleWebKit/537.36 (KHTML, like Gecko) Chrome/87.0.4280.88 Safari/537.36" etag="95X6WWihVwZ-aN7qb3W7" version="14.1.8" type="github">
  <diagram id="S6ZoqNKSEtsfOgExDe7B" name="Page-1">
    <mxGraphModel dx="946" dy="557" grid="1" gridSize="10" guides="1" tooltips="1" connect="1" arrows="1" fold="1" page="1" pageScale="1" pageWidth="827" pageHeight="1169" math="0" shadow="0">
      <root>
        <mxCell id="0" />
        <mxCell id="1" parent="0" />
        <mxCell id="ndxPyy0DqH1CVGWkyvCU-1" value="ServicesBinding" style="swimlane;fontStyle=1;align=center;verticalAlign=top;childLayout=stackLayout;horizontal=1;startSize=26;horizontalStack=0;resizeParent=1;resizeParentMax=0;resizeLast=0;collapsible=1;marginBottom=0;fillColor=#f5f5f5;strokeColor=#666666;fontColor=#333333;" vertex="1" parent="1">
          <mxGeometry x="240" y="150" width="340" height="180" as="geometry" />
        </mxCell>
        <mxCell id="ndxPyy0DqH1CVGWkyvCU-2" value="+ instance: ServicesBinding&#xa;+ defaultBinaryMessenger: BinaryMessenger" style="text;strokeColor=#d6b656;fillColor=#fff2cc;align=left;verticalAlign=top;spacingLeft=4;spacingRight=4;overflow=hidden;rotatable=0;points=[[0,0.5],[1,0.5]];portConstraint=eastwest;" vertex="1" parent="ndxPyy0DqH1CVGWkyvCU-1">
          <mxGeometry y="26" width="340" height="44" as="geometry" />
        </mxCell>
        <mxCell id="ndxPyy0DqH1CVGWkyvCU-3" value="" style="line;strokeWidth=1;fillColor=none;align=left;verticalAlign=middle;spacingTop=-1;spacingLeft=3;spacingRight=3;rotatable=0;labelPosition=right;points=[];portConstraint=eastwest;" vertex="1" parent="ndxPyy0DqH1CVGWkyvCU-1">
          <mxGeometry y="70" width="340" height="8" as="geometry" />
        </mxCell>
        <mxCell id="ndxPyy0DqH1CVGWkyvCU-4" value="+ initInstances()&#xa;+ createBinaryMessenger()&#xa;+ handleSystemMessage()&#xa;+ initLicenses()&#xa;+ initServiceExtensions()&#xa;+ evict()" style="text;strokeColor=#d79b00;fillColor=#ffe6cc;align=left;verticalAlign=top;spacingLeft=4;spacingRight=4;overflow=hidden;rotatable=0;points=[[0,0.5],[1,0.5]];portConstraint=eastwest;" vertex="1" parent="ndxPyy0DqH1CVGWkyvCU-1">
          <mxGeometry y="78" width="340" height="102" as="geometry" />
        </mxCell>
      </root>
    </mxGraphModel>
  </diagram>
</mxfile>
